<?xml version="1.0" encoding="utf-8"?>
<!-- Generator: Adobe Illustrator 23.0.6, SVG Export Plug-In . SVG Version: 6.00 Build 0)  -->
<svg version="1.1" id="Layer_1" xmlns="http://www.w3.org/2000/svg" xmlns:xlink="http://www.w3.org/1999/xlink" x="0px" y="0px"
	 viewBox="0 0 32 32" style="enable-background:new 0 0 32 32;" xml:space="preserve">
<path d="M16,9.4c-2.3,0-4.2,1.9-4.2,4.2c0,1.4,0.7,2.7,1.9,3.5c-2.1,0.9-3.7,3-3.7,5.5h1.2c0-2.7,2.1-4.8,4.8-4.8s4.8,2.1,4.8,4.8
	H22c0-2.5-1.5-4.6-3.7-5.5c1.1-0.8,1.9-2,1.9-3.5C20.2,11.3,18.3,9.4,16,9.4z M16,10.6c1.7,0,3,1.3,3,3s-1.3,3-3,3s-3-1.3-3-3
	S14.3,10.6,16,10.6z"/>
</svg>
